# xmcd CD database file
#
# Track frame offsets:
#	150
#	1020
#	12870
#	25770
#	37995
#	45720
#	55995
#	56932
#	69382
#	79132
#	89107
#	93607
#	102007
#	110257
#	110819
#	114494
#	120119
#	129119
#	134144
#	144794
#	155369
#
# Disc length: 2079 seconds
#
# Revision: 0
# Processed by: cddbd v1.5.2PL0 Copyright (c) Steve Scherf et al.
# Submitted via: CDex 1.70beta2
#
DISCID=0f081d15
DTITLE=Kompas - Kompas 1972 -2012
DYEAR=2012
DGENRE=Country
TTITLE0=Tak jedem
TTITLE1=40 hraje pro kompas
TTITLE2=wayfaring stranger
TTITLE3=danie's song
TTITLE4=vsem krystofum kolumbum
TTITLE5=tajny prani
TTITLE6=hovno
TTITLE7=nocni brno
TTITLE8=navrat
TTITLE9=v dali nekde svita
TTITLE10=fly me to the moon
TTITLE11=uz je pryc
TTITLE12=mesic
TTITLE13=tak mas pauzu
TTITLE14=zaba puk
TTITLE15=alzheimer
TTITLE16=voda se neutopi
TTITLE17=guitar+dobro
TTITLE18=6.pluk
TTITLE19=no to se vi
TTITLE20=to bylo hrozny
EXTD=YEAR: 2012
EXTT0=
EXTT1=
EXTT2=
EXTT3=
EXTT4=
EXTT5=
EXTT6=
EXTT7=
EXTT8=
EXTT9=
EXTT10=
EXTT11=
EXTT12=
EXTT13=
EXTT14=
EXTT15=
EXTT16=
EXTT17=
EXTT18=
EXTT19=
EXTT20=
PLAYORDER=
